<svg width="24" height="20" viewBox="0 0 24 20" fill="none" xmlns="http://www.w3.org/2000/svg">
<path d="M15.5032 0.666749C15.8054 0.666749 16.1845 0.746082 16.489 0.820749C17.5507 1.07742 18.8095 1.39592 19.7032 2.06675C20.535 2.69092 21.1814 3.77942 21.6807 4.88542C22.719 7.18958 23.4412 10.2614 23.6909 12.5971C23.8099 13.7054 23.839 14.8207 23.6255 15.5709C23.5205 15.9396 23.293 16.2172 23.1332 16.3876C22.6455 16.9044 22.0179 17.2906 21.3972 17.6417L21.0892 17.8156C20.8863 17.9284 20.6822 18.0389 20.4767 18.1469L19.8677 18.4619L19.0312 18.8784L18.358 19.2097C18.1117 19.3331 17.8296 19.3654 17.5618 19.3007C17.294 19.2361 17.0577 19.0787 16.8947 18.8565C16.7318 18.6344 16.6527 18.3617 16.6716 18.0868C16.6904 17.8119 16.806 17.5526 16.9977 17.3547L16.4914 16.3421C15.0354 16.7845 13.5214 17.0063 11.9997 17.0001C10.4014 17.0001 8.87652 16.7668 7.50802 16.3421L7.00286 17.3524C7.19531 17.5499 7.31156 17.8093 7.33099 18.0844C7.35043 18.3594 7.27178 18.6325 7.10901 18.8552C6.94624 19.0778 6.70987 19.2355 6.44184 19.3004C6.17381 19.3654 5.89145 19.3332 5.64486 19.2097L5.01019 18.8947C4.30552 18.5471 3.60086 18.1994 2.91486 17.8156C2.19852 17.4154 1.43902 16.9896 0.870858 16.3864C0.644122 16.1572 0.475339 15.8773 0.378524 15.5697C0.163858 14.8207 0.194191 13.7066 0.312024 12.5971C0.561691 10.2614 1.28386 7.18958 2.32336 4.88542C2.82152 3.77942 3.46786 2.69092 4.29969 2.06675C5.19336 1.39592 6.45219 1.07742 7.51386 0.820749C7.81836 0.746082 8.19636 0.666749 8.49969 0.666749C8.66748 0.666604 8.83333 0.702653 8.98592 0.772438C9.13851 0.842222 9.27425 0.944099 9.38388 1.07112C9.49352 1.19814 9.57446 1.34731 9.6212 1.50846C9.66793 1.66961 9.67936 1.83895 9.65469 2.00491C10.4311 1.89004 11.2149 1.83272 11.9997 1.83342C12.8059 1.83342 13.5934 1.89175 14.3494 2.00608C14.3245 1.84003 14.3358 1.67056 14.3824 1.50927C14.4291 1.34798 14.51 1.19865 14.6197 1.0715C14.7293 0.944346 14.8651 0.842359 15.0178 0.772506C15.1705 0.702653 15.3353 0.666579 15.5032 0.666749ZM17.0829 3.42358C16.9079 3.36758 16.8659 3.39208 16.8029 3.49708L16.7305 3.62775C16.542 3.95099 16.2556 4.20603 15.9129 4.35615C15.5701 4.50627 15.1885 4.54371 14.823 4.46308C13.8952 4.26391 12.9487 4.16456 11.9997 4.16675C11.0057 4.16675 10.0549 4.27175 9.17636 4.46308C8.81092 4.54371 8.42933 4.50627 8.08653 4.35615C7.74374 4.20603 7.45743 3.95099 7.26886 3.62775L7.19652 3.49825C7.13469 3.39325 7.09269 3.36875 6.91886 3.42358C6.50352 3.55542 6.05786 3.69658 5.69969 3.93342C5.36486 4.18425 4.91802 4.80842 4.45019 5.84558C3.55652 7.82542 2.85652 10.7502 2.63252 12.8456C2.58586 13.2877 2.56136 13.6669 2.55552 13.9796V14.3226C2.56019 14.5302 2.57536 14.6947 2.59636 14.8149C2.89269 15.1042 3.25902 15.3317 3.62652 15.5406L4.42219 15.9804L4.94252 16.2546L5.36719 15.4052C5.16159 15.2137 5.03204 14.9543 5.00237 14.6749C4.9727 14.3954 5.0449 14.1146 5.2057 13.8842C5.36649 13.6537 5.60508 13.489 5.87759 13.4203C6.15011 13.3517 6.43824 13.3838 6.68902 13.5106C8.10769 14.2234 9.95336 14.6667 11.9997 14.6667C14.0449 14.6667 15.8917 14.2211 17.3104 13.5117C17.5504 13.3915 17.8246 13.3577 18.0867 13.4161C18.3488 13.4745 18.5827 13.6215 18.749 13.8324C18.9152 14.0432 19.0037 14.3049 18.9994 14.5734C18.9952 14.8419 18.8984 15.1006 18.7255 15.3061L18.6322 15.4052L19.0569 16.2569C19.4045 16.0772 19.7534 15.8871 20.1034 15.6934C20.5584 15.4414 21.0367 15.1766 21.4065 14.8149C21.4275 14.6947 21.4415 14.5302 21.4474 14.3226V13.9796C21.4379 13.6003 21.4122 13.2215 21.3704 12.8444C21.1464 10.7502 20.4464 7.82541 19.5527 5.84441C19.086 4.80841 18.638 4.18425 18.3044 3.93342C17.945 3.69658 17.4994 3.55542 17.0829 3.42358ZM8.20802 8.25008C8.74951 8.25008 9.26881 8.46518 9.6517 8.84807C10.0346 9.23096 10.2497 9.75027 10.2497 10.2917C10.2497 10.8332 10.0346 11.3525 9.6517 11.7354C9.26881 12.1183 8.74951 12.3334 8.20802 12.3334C7.66654 12.3334 7.14723 12.1183 6.76435 11.7354C6.38146 11.3525 6.16636 10.8332 6.16636 10.2917C6.16636 9.75027 6.38146 9.23096 6.76435 8.84807C7.14723 8.46518 7.66654 8.25008 8.20802 8.25008ZM15.7914 8.25008C16.3328 8.25008 16.8521 8.46518 17.235 8.84807C17.6179 9.23096 17.833 9.75027 17.833 10.2917C17.833 10.8332 17.6179 11.3525 17.235 11.7354C16.8521 12.1183 16.3328 12.3334 15.7914 12.3334C15.2499 12.3334 14.7306 12.1183 14.3477 11.7354C13.9648 11.3525 13.7497 10.8332 13.7497 10.2917C13.7497 9.75027 13.9648 9.23096 14.3477 8.84807C14.7306 8.46518 15.2499 8.25008 15.7914 8.25008Z" fill="#F1F1F1"/>
</svg>
